<svg width="28" height="28" viewBox="0 0 28 28" fill="none" xmlns="http://www.w3.org/2000/svg">
<circle cx="14" cy="14" r="14" fill="#DBE7FF"/>
<path d="M9.67964 17.28L14.1596 9.59997C14.3196 9.35997 14.6396 9.35997 14.7996 9.59997L15.9996 11.2C16.3196 11.68 16.3996 12.32 16.0796 12.8L13.4396 17.04C13.1996 17.44 12.7196 17.76 12.2396 17.76H9.91964C9.67964 17.84 9.51964 17.52 9.67964 17.28Z" stroke="#1565D8" stroke-width="1.5" stroke-miterlimit="10" stroke-linecap="round" stroke-linejoin="round"/>
<path d="M16.9597 14.72L15.4397 17.28C15.2797 17.52 15.4397 17.84 15.7597 17.84H18.7997C19.1197 17.84 19.2797 17.52 19.1197 17.28L17.5997 14.72C17.4397 14.48 17.1197 14.48 16.9597 14.72Z" stroke="#1565D8" stroke-width="1.5" stroke-miterlimit="10" stroke-linecap="round" stroke-linejoin="round"/>
<path d="M14.3994 22.4C18.8177 22.4 22.3994 18.8183 22.3994 14.4C22.3994 9.9817 18.8177 6.39998 14.3994 6.39998C9.98114 6.39998 6.39941 9.9817 6.39941 14.4C6.39941 18.8183 9.98114 22.4 14.3994 22.4Z" stroke="#1565D8" stroke-width="1.5" stroke-miterlimit="10"/>
</svg>
