<svg width="28" height="28" viewBox="0 0 28 28" fill="none" xmlns="http://www.w3.org/2000/svg">
<circle cx="14" cy="14" r="14" fill="#DBE7FF"/>
<path d="M14.4037 24C19.7056 24 24.0037 19.702 24.0037 14.4C24.0037 9.09808 19.7056 4.80002 14.4037 4.80002C9.10178 4.80002 4.80371 9.09808 4.80371 14.4C4.80371 19.702 9.10178 24 14.4037 24Z" fill="#1565D8"/>
<path d="M18.6163 12.8987H15.9053V15.6097H18.6163V12.8987Z" fill="white"/>
<path d="M13.1984 16.6254C13.1984 16.8267 13.1387 17.0234 13.0269 17.1908C12.9151 17.3581 12.7562 17.4885 12.5702 17.5655C12.3843 17.6426 12.1797 17.6627 11.9823 17.6234C11.7849 17.5842 11.6036 17.4873 11.4613 17.345C11.319 17.2026 11.222 17.0213 11.1828 16.8239C11.1435 16.6265 11.1637 16.4219 11.2407 16.236C11.3177 16.05 11.4481 15.8911 11.6155 15.7793C11.7828 15.6675 11.9796 15.6078 12.1808 15.6078H13.1984V12.8987H12.1808C11.4437 12.8987 10.7232 13.1173 10.1104 13.5267C9.49751 13.9362 9.01985 14.5183 8.73778 15.1992C8.45572 15.8802 8.38191 16.6295 8.52571 17.3524C8.66951 18.0754 9.02444 18.7394 9.54563 19.2606C10.0668 19.7818 10.7309 20.1367 11.4538 20.2805C12.1767 20.4243 12.926 20.3505 13.607 20.0684C14.2879 19.7864 14.87 19.3087 15.2795 18.6959C15.689 18.083 15.9075 17.3625 15.9075 16.6254V15.6078H13.1984V16.6254Z" fill="white"/>
<path d="M16.922 11.5429H19.971V8.83185H16.922C15.934 8.83286 14.9866 9.22583 14.288 9.9245C13.5893 10.6232 13.1963 11.5705 13.1953 12.5586V12.8984H15.9044V12.5586C15.9049 12.289 16.0124 12.0307 16.2032 11.8403C16.3939 11.6498 16.6525 11.5429 16.922 11.5429Z" fill="white"/>
<path d="M13.1953 15.6078H15.9044V12.8987H13.1953V15.6078Z" fill="#1565D8"/>
</svg>
