<svg width="28" height="28" viewBox="0 0 28 28" fill="none" xmlns="http://www.w3.org/2000/svg">
<circle cx="14" cy="14" r="14" fill="#DBE7FF"/>
<path d="M19.2426 7.21219L15.8982 12.1777C15.8505 12.2493 15.8304 12.3356 15.8415 12.4208C15.8526 12.506 15.8942 12.5843 15.9586 12.6412C16.0229 12.6981 16.1057 12.7298 16.1917 12.7304C16.2776 12.731 16.3608 12.7004 16.4259 12.6444L19.7182 9.78885C19.7375 9.77159 19.7614 9.76032 19.787 9.75642C19.8126 9.75251 19.8387 9.75614 19.8623 9.76686C19.8859 9.77758 19.9058 9.79493 19.9197 9.81679C19.9335 9.83865 19.9407 9.86408 19.9404 9.88996V18.83C19.9404 18.8573 19.9319 18.884 19.9162 18.9064C19.9005 18.9289 19.8783 18.9459 19.8526 18.9552C19.8269 18.9646 19.7989 18.9658 19.7724 18.9587C19.746 18.9516 19.7224 18.9365 19.7048 18.9155L9.75372 7.0033C9.59366 6.81429 9.39436 6.66241 9.16967 6.55822C8.94498 6.45403 8.70029 6.40003 8.45261 6.39996H8.10483C7.65279 6.39996 7.21926 6.57954 6.89961 6.89918C6.57997 7.21883 6.40039 7.65236 6.40039 8.10441V20.6955C6.40039 21.1476 6.57997 21.5811 6.89961 21.9007C7.21926 22.2204 7.65279 22.4 8.10483 22.4C8.3963 22.4 8.68292 22.3254 8.93734 22.1832C9.19177 22.041 9.40551 21.836 9.55817 21.5877L12.9026 16.6222C12.9502 16.5507 12.9704 16.4643 12.9593 16.3791C12.9482 16.2939 12.9066 16.2156 12.8422 16.1587C12.7778 16.1018 12.695 16.0701 12.6091 16.0695C12.5232 16.0689 12.44 16.0995 12.3748 16.1555L9.08261 19.0111C9.06332 19.0283 9.03942 19.0396 9.01382 19.0435C8.98823 19.0474 8.96206 19.0438 8.93849 19.0331C8.91493 19.0223 8.895 19.005 8.88113 18.9831C8.86726 18.9613 8.86005 18.9359 8.86039 18.91V9.96774C8.8604 9.94037 8.86883 9.91367 8.88454 9.89126C8.90025 9.86885 8.92248 9.85181 8.94821 9.84247C8.97393 9.83313 9.00191 9.83192 9.02834 9.83903C9.05477 9.84614 9.07837 9.8612 9.09595 9.88219L19.0459 21.7966C19.206 21.9856 19.4053 22.1375 19.63 22.2417C19.8547 22.3459 20.0994 22.3999 20.3471 22.4H20.6948C20.9188 22.4001 21.1405 22.3561 21.3474 22.2705C21.5544 22.185 21.7424 22.0594 21.9008 21.9011C22.0592 21.7429 22.1848 21.5549 22.2705 21.348C22.3563 21.1412 22.4004 20.9194 22.4004 20.6955V8.10441C22.4004 7.65236 22.2208 7.21883 21.9012 6.89918C21.5815 6.57954 21.148 6.39996 20.6959 6.39996C20.4045 6.39989 20.1179 6.4745 19.8634 6.61669C19.609 6.75888 19.3953 6.9639 19.2426 7.21219Z" fill="#1565D8"/>
</svg>
