<svg width="28" height="28" viewBox="0 0 28 28" fill="none" xmlns="http://www.w3.org/2000/svg">
<circle cx="14" cy="14" r="14" fill="#DBE7FF"/>
<path fill-rule="evenodd" clip-rule="evenodd" d="M22.0508 8.60285C20.5975 6.74336 18.4641 5.56655 16.1049 5.56655C11.5422 5.56655 8.204 9.8066 8.204 14.4C8.204 17.6021 10.3291 19.9985 12.6931 19.9985C12.9139 19.9985 13.1331 19.9785 13.3491 19.9387C11.7659 18.784 10.7528 16.6808 10.7528 14.4C10.7528 10.7682 13.2096 7.93804 16.1049 7.93804C19.2625 7.93804 21.4583 11.0738 21.4583 14.4C21.45 16.8565 20.5743 19.299 19.0331 21.1011C17.6881 22.6742 15.9459 23.6718 14.0304 23.9883C14.0304 23.9883 14.1902 24.0001 14.399 24.0001C19.7009 24.0001 23.9988 19.7019 23.9988 14.4C23.9988 12.2218 23.273 10.2135 22.0508 8.60285ZM20.5936 14.4001C20.5936 11.1977 18.4686 8.80136 16.1048 8.80136C15.8837 8.80136 15.6648 8.82136 15.4485 8.86136C17.032 10.016 18.0448 12.1193 18.0448 14.4001C18.0448 18.0318 15.5883 20.862 12.693 20.862C9.53514 20.862 7.33965 17.7262 7.33965 14.4001C7.34765 11.9435 8.22366 9.5011 9.76448 7.69895C11.1098 6.12587 12.8519 5.12826 14.7672 4.81172C14.7672 4.81172 14.6077 4.79999 14.3989 4.79999C9.097 4.79999 4.79883 9.09816 4.79883 14.4001C4.79883 16.578 5.5247 18.5862 6.74712 20.1975C8.2002 22.0564 10.3338 23.2335 12.693 23.2335C17.2558 23.2335 20.5936 18.9934 20.5936 14.4001Z" fill="#1565D8"/>
</svg>
