<svg width="28" height="28" viewBox="0 0 28 28" fill="none" xmlns="http://www.w3.org/2000/svg">
<circle cx="14" cy="14" r="14" fill="#DBE7FF"/>
<path d="M20.1981 7.86589H9.36082C9.1366 7.86589 8.91238 7.94062 8.7629 8.16484L7.64181 9.65964C7.26811 10.1828 7.64181 10.8555 8.23973 10.8555H19.077C19.3012 10.8555 19.5254 10.7807 19.6749 10.5565L20.796 9.06172C21.1697 8.53854 20.796 7.86589 20.1981 7.86589Z" stroke="#1565D8" stroke-width="1.5" stroke-miterlimit="10"/>
<path d="M8.23973 12.724H19.077C19.3012 12.724 19.5254 12.7987 19.6749 13.0229L20.796 14.5177C21.1697 15.0409 20.796 15.7135 20.1981 15.7135H9.36082C9.1366 15.7135 8.91238 15.6388 8.7629 15.4146L7.64181 13.9198C7.26811 13.3966 7.64181 12.724 8.23973 12.724Z" stroke="#1565D8" stroke-width="1.5" stroke-miterlimit="10"/>
<path d="M20.1981 17.582H9.36082C9.1366 17.582 8.91238 17.6568 8.7629 17.881L7.64181 19.3758C7.26811 19.899 7.64181 20.5716 8.23973 20.5716H19.077C19.3012 20.5716 19.5254 20.4969 19.6749 20.2727L20.796 18.7779C21.1697 18.2547 20.796 17.582 20.1981 17.582Z" stroke="#1565D8" stroke-width="1.5" stroke-miterlimit="10"/>
</svg>
