<svg width="85" height="85" viewBox="0 0 85 85" fill="none" xmlns="http://www.w3.org/2000/svg">
<circle cx="42.5" cy="42.5" r="42.5" fill="#182CD1"/>
<path d="M33.1607 21H37.881C37.9264 21.1156 37.9607 21.2355 37.9833 21.3578C37.9833 33.0762 37.9833 44.7973 37.9833 56.521C37.968 56.6149 37.9388 56.706 37.8967 56.7913C37.794 56.8362 37.6854 56.8656 37.5742 56.8787H33.3417C33.2627 56.858 33.1881 56.823 33.1214 56.7754C33.0845 56.6943 33.0581 56.6088 33.0427 56.521V21.3657C33.0673 21.2394 33.1069 21.1166 33.1607 21V21Z" fill="white"/>
<path d="M52.8444 65.8622C52.0026 65.9815 33.861 65.9735 33.1136 65.8622C33.0784 65.7263 33.0521 65.5882 33.035 65.4488C32.9654 63.9801 32.9996 62.5083 33.1372 61.0445C33.2788 61.0445 33.444 60.9809 33.6093 60.965C33.7745 60.9491 33.9633 60.965 34.1364 60.965H51.7666C52.1312 60.931 52.4989 60.9633 52.8523 61.0604C52.8949 61.1953 52.9265 61.3336 52.9467 61.4738C53.0274 62.937 52.9932 64.4044 52.8444 65.8622V65.8622Z" fill="white"/>
</svg>
