<svg width="30" height="39" viewBox="0 0 30 39" fill="none" xmlns="http://www.w3.org/2000/svg">
<path d="M3.15217 39V25.5084H0V21.4664H3.15217V17.5336H0V13.4916H3.15217V0H11.6848L15.9239 13.4916H20.8696V0H26.9022V13.4916H30V17.5336H26.9022V21.4664H30V25.5084H26.9022V39H18.3152L13.9674 25.5084H9.18478V39H3.15217ZM9.18478 21.4664H12.7717L11.5761 17.5336H9.07609L9.18478 21.4664ZM21.0326 30.479H21.3043L21.087 25.5084H19.6196L21.0326 30.479ZM8.96739 13.4916H10.4891L8.91304 8.2479H8.69565L8.96739 13.4916ZM18.4783 21.4664H20.9783L20.8696 17.5336H17.2283L18.4783 21.4664Z" fill="black"/>
</svg>
